<?xml version="1.0" encoding="UTF-8" standalone="no"?>
<!DOCTYPE svg PUBLIC "-//W3C//DTD SVG 1.1//EN"
 "http://www.w3.org/Graphics/SVG/1.1/DTD/svg11.dtd">
<!-- Generated by graphviz version 2.43.0 (0)
 -->
<!-- Title: %3 Pages: 1 -->
<svg width="404pt" height="44pt"
 viewBox="0.00 0.00 404.00 44.00" xmlns="http://www.w3.org/2000/svg" xmlns:xlink="http://www.w3.org/1999/xlink">
<g id="graph0" class="graph" transform="scale(1 1) rotate(0) translate(4 40)">
<title>%3</title>
<polygon fill="white" stroke="transparent" points="-4,4 -4,-40 400,-40 400,4 -4,4"/>
<!-- 1 -->
<g id="node1" class="node">
<title>1</title>
<path fill="#fcbf49" stroke="black" stroke-width="0" d="M96,-36C96,-36 12,-36 12,-36 6,-36 0,-30 0,-24 0,-24 0,-12 0,-12 0,-6 6,0 12,0 12,0 96,0 96,0 102,0 108,-6 108,-12 108,-12 108,-24 108,-24 108,-30 102,-36 96,-36"/>
<text text-anchor="middle" x="54" y="-14.3" font-family="Helvetica,Arial,sans-serif" font-size="14.00" fill="#003049">Step 1</text>
</g>
<!-- 2 -->
<g id="node2" class="node">
<title>2</title>
<path fill="#fcbf49" stroke="black" stroke-width="0" d="M240,-36C240,-36 156,-36 156,-36 150,-36 144,-30 144,-24 144,-24 144,-12 144,-12 144,-6 150,0 156,0 156,0 240,0 240,0 246,0 252,-6 252,-12 252,-12 252,-24 252,-24 252,-30 246,-36 240,-36"/>
<text text-anchor="middle" x="198" y="-14.3" font-family="Helvetica,Arial,sans-serif" font-size="14.00" fill="#003049">Step 2</text>
</g>
<!-- 1&#45;&gt;2 -->
<g id="edge1" class="edge">
<title>1&#45;&gt;2</title>
<path fill="none" stroke="#003049" d="M108.28,-18C116.56,-18 125.18,-18 133.66,-18"/>
<polygon fill="#003049" stroke="#003049" points="143.89,-18 133.89,-22.5 138.89,-18 133.89,-18 133.89,-18 133.89,-18 138.89,-18 133.89,-13.5 143.89,-18 143.89,-18"/>
</g>
<!-- 3 -->
<g id="node3" class="node">
<title>3</title>
<path fill="#fcbf49" stroke="black" stroke-width="0" d="M384,-36C384,-36 300,-36 300,-36 294,-36 288,-30 288,-24 288,-24 288,-12 288,-12 288,-6 294,0 300,0 300,0 384,0 384,0 390,0 396,-6 396,-12 396,-12 396,-24 396,-24 396,-30 390,-36 384,-36"/>
<text text-anchor="middle" x="342" y="-14.3" font-family="Helvetica,Arial,sans-serif" font-size="14.00" fill="#003049">Step 3</text>
</g>
<!-- 2&#45;&gt;3 -->
<g id="edge2" class="edge">
<title>2&#45;&gt;3</title>
<path fill="none" stroke="#003049" d="M252.28,-18C260.56,-18 269.18,-18 277.66,-18"/>
<polygon fill="#003049" stroke="#003049" points="287.89,-18 277.89,-22.5 282.89,-18 277.89,-18 277.89,-18 277.89,-18 282.89,-18 277.89,-13.5 287.89,-18 287.89,-18"/>
</g>
</g>
</svg>
