<?xml version="1.0" encoding="UTF-8" standalone="no"?>
<!DOCTYPE svg PUBLIC "-//W3C//DTD SVG 1.1//EN"
 "http://www.w3.org/Graphics/SVG/1.1/DTD/svg11.dtd">
<!-- Generated by graphviz version 2.43.0 (0)
 -->
<!-- Title: %3 Pages: 1 -->
<svg width="404pt" height="272pt"
 viewBox="0.00 0.00 404.00 272.00" xmlns="http://www.w3.org/2000/svg" xmlns:xlink="http://www.w3.org/1999/xlink">
<g id="graph0" class="graph" transform="scale(1 1) rotate(0) translate(4 268)">
<title>%3</title>
<polygon fill="white" stroke="transparent" points="-4,4 -4,-268 400,-268 400,4 -4,4"/>
<text text-anchor="middle" x="198" y="-10" font-family="Helvetica,Arial,sans-serif" font-size="20.00" fill="#003049">Graph with Attributes</text>
<!-- A -->
<g id="node1" class="node">
<title>A</title>
<ellipse fill="#fcbf49" stroke="black" stroke-width="0" cx="54" cy="-147" rx="54" ry="54"/>
<text text-anchor="middle" x="54" y="-143.3" font-family="Helvetica,Arial,sans-serif" font-size="14.00" fill="#003049">A</text>
</g>
<!-- B -->
<g id="node2" class="node">
<title>B</title>
<ellipse fill="#fcbf49" stroke="black" stroke-width="0" cx="198" cy="-210" rx="54" ry="54"/>
<text text-anchor="middle" x="198" y="-206.3" font-family="Helvetica,Arial,sans-serif" font-size="14.00" fill="#003049">B</text>
</g>
<!-- A&#45;&gt;B -->
<g id="edge1" class="edge">
<title>A&#45;&gt;B</title>
<path fill="none" stroke="#003049" d="M103.87,-168.68C115.14,-173.68 127.23,-179.05 138.85,-184.2"/>
<polygon fill="#003049" stroke="#003049" points="148.04,-188.28 137.08,-188.34 143.47,-186.25 138.9,-184.22 138.9,-184.22 138.9,-184.22 143.47,-186.25 140.73,-180.11 148.04,-188.28 148.04,-188.28"/>
</g>
<!-- C -->
<g id="node3" class="node">
<title>C</title>
<ellipse fill="#fcbf49" stroke="black" stroke-width="0" cx="198" cy="-84" rx="54" ry="54"/>
<text text-anchor="middle" x="198" y="-80.3" font-family="Helvetica,Arial,sans-serif" font-size="14.00" fill="#003049">C</text>
</g>
<!-- A&#45;&gt;C -->
<g id="edge2" class="edge">
<title>A&#45;&gt;C</title>
<path fill="none" stroke="#003049" d="M103.87,-125.32C115.14,-120.32 127.23,-114.95 138.85,-109.8"/>
<polygon fill="#003049" stroke="#003049" points="148.04,-105.72 140.73,-113.89 143.47,-107.75 138.9,-109.78 138.9,-109.78 138.9,-109.78 143.47,-107.75 137.08,-105.66 148.04,-105.72 148.04,-105.72"/>
</g>
<!-- D -->
<g id="node4" class="node">
<title>D</title>
<ellipse fill="#fcbf49" stroke="black" stroke-width="0" cx="342" cy="-147" rx="54" ry="54"/>
<text text-anchor="middle" x="342" y="-143.3" font-family="Helvetica,Arial,sans-serif" font-size="14.00" fill="#003049">D</text>
</g>
<!-- B&#45;&gt;D -->
<g id="edge3" class="edge">
<title>B&#45;&gt;D</title>
<path fill="none" stroke="#003049" d="M247.87,-188.32C259.14,-183.32 271.23,-177.95 282.85,-172.8"/>
<polygon fill="#003049" stroke="#003049" points="292.04,-168.72 284.73,-176.89 287.47,-170.75 282.9,-172.78 282.9,-172.78 282.9,-172.78 287.47,-170.75 281.08,-168.66 292.04,-168.72 292.04,-168.72"/>
</g>
<!-- C&#45;&gt;D -->
<g id="edge4" class="edge">
<title>C&#45;&gt;D</title>
<path fill="none" stroke="#003049" d="M247.87,-105.68C259.14,-110.68 271.23,-116.05 282.85,-121.2"/>
<polygon fill="#003049" stroke="#003049" points="292.04,-125.28 281.08,-125.34 287.47,-123.25 282.9,-121.22 282.9,-121.22 282.9,-121.22 287.47,-123.25 284.73,-117.11 292.04,-125.28 292.04,-125.28"/>
</g>
</g>
</svg>
