<?xml version="1.0" encoding="UTF-8" standalone="no"?>
<!DOCTYPE svg PUBLIC "-//W3C//DTD SVG 1.1//EN"
 "http://www.w3.org/Graphics/SVG/1.1/DTD/svg11.dtd">
<!-- Generated by graphviz version 2.43.0 (0)
 -->
<!-- Title: %3 Pages: 1 -->
<svg width="305pt" height="188pt"
 viewBox="0.00 0.00 305.00 188.00" xmlns="http://www.w3.org/2000/svg" xmlns:xlink="http://www.w3.org/1999/xlink">
<g id="graph0" class="graph" transform="scale(1 1) rotate(0) translate(4 184)">
<title>%3</title>
<polygon fill="white" stroke="transparent" points="-4,4 -4,-184 301,-184 301,4 -4,4"/>
<!-- A -->
<g id="node1" class="node">
<title>A</title>
<path fill="#fcbf49" stroke="black" stroke-width="0" d="M222,-180C222,-180 138,-180 138,-180 132,-180 126,-174 126,-168 126,-168 126,-156 126,-156 126,-150 132,-144 138,-144 138,-144 222,-144 222,-144 228,-144 234,-150 234,-156 234,-156 234,-168 234,-168 234,-174 228,-180 222,-180"/>
<text text-anchor="middle" x="180" y="-158.3" font-family="Helvetica,Arial,sans-serif" font-size="14.00" fill="#003049">Root</text>
</g>
<!-- B -->
<g id="node2" class="node">
<title>B</title>
<path fill="#fcbf49" stroke="black" stroke-width="0" d="M159,-108C159,-108 75,-108 75,-108 69,-108 63,-102 63,-96 63,-96 63,-84 63,-84 63,-78 69,-72 75,-72 75,-72 159,-72 159,-72 165,-72 171,-78 171,-84 171,-84 171,-96 171,-96 171,-102 165,-108 159,-108"/>
<text text-anchor="middle" x="117" y="-86.3" font-family="Helvetica,Arial,sans-serif" font-size="14.00" fill="#003049">Child B</text>
</g>
<!-- A&#45;&gt;B -->
<g id="edge1" class="edge">
<title>A&#45;&gt;B</title>
<path fill="none" stroke="#003049" d="M164.43,-143.7C156.8,-135.22 147.48,-124.86 139.12,-115.58"/>
<polygon fill="#003049" stroke="#003049" points="132.39,-108.1 142.43,-112.53 135.74,-111.82 139.08,-115.54 139.08,-115.54 139.08,-115.54 135.74,-111.82 135.74,-118.55 132.39,-108.1 132.39,-108.1"/>
</g>
<!-- C -->
<g id="node3" class="node">
<title>C</title>
<path fill="#fcbf49" stroke="black" stroke-width="0" d="M285,-108C285,-108 201,-108 201,-108 195,-108 189,-102 189,-96 189,-96 189,-84 189,-84 189,-78 195,-72 201,-72 201,-72 285,-72 285,-72 291,-72 297,-78 297,-84 297,-84 297,-96 297,-96 297,-102 291,-108 285,-108"/>
<text text-anchor="middle" x="243" y="-86.3" font-family="Helvetica,Arial,sans-serif" font-size="14.00" fill="#003049">Child C</text>
</g>
<!-- A&#45;&gt;C -->
<g id="edge2" class="edge">
<title>A&#45;&gt;C</title>
<path fill="none" stroke="#003049" d="M195.57,-143.7C203.2,-135.22 212.52,-124.86 220.88,-115.58"/>
<polygon fill="#003049" stroke="#003049" points="227.61,-108.1 224.26,-118.55 224.26,-111.82 220.92,-115.54 220.92,-115.54 220.92,-115.54 224.26,-111.82 217.57,-112.53 227.61,-108.1 227.61,-108.1"/>
</g>
<!-- D -->
<g id="node4" class="node">
<title>D</title>
<path fill="#fcbf49" stroke="black" stroke-width="0" d="M96,-36C96,-36 12,-36 12,-36 6,-36 0,-30 0,-24 0,-24 0,-12 0,-12 0,-6 6,0 12,0 12,0 96,0 96,0 102,0 108,-6 108,-12 108,-12 108,-24 108,-24 108,-30 102,-36 96,-36"/>
<text text-anchor="middle" x="54" y="-14.3" font-family="Helvetica,Arial,sans-serif" font-size="14.00" fill="#003049">Child D</text>
</g>
<!-- B&#45;&gt;D -->
<g id="edge3" class="edge">
<title>B&#45;&gt;D</title>
<path fill="none" stroke="#003049" d="M101.43,-71.7C93.8,-63.22 84.48,-52.86 76.12,-43.58"/>
<polygon fill="#003049" stroke="#003049" points="69.39,-36.1 79.43,-40.53 72.74,-39.82 76.08,-43.54 76.08,-43.54 76.08,-43.54 72.74,-39.82 72.74,-46.55 69.39,-36.1 69.39,-36.1"/>
</g>
<!-- E -->
<g id="node5" class="node">
<title>E</title>
<path fill="#fcbf49" stroke="black" stroke-width="0" d="M222,-36C222,-36 138,-36 138,-36 132,-36 126,-30 126,-24 126,-24 126,-12 126,-12 126,-6 132,0 138,0 138,0 222,0 222,0 228,0 234,-6 234,-12 234,-12 234,-24 234,-24 234,-30 228,-36 222,-36"/>
<text text-anchor="middle" x="180" y="-14.3" font-family="Helvetica,Arial,sans-serif" font-size="14.00" fill="#003049">Child E</text>
</g>
<!-- B&#45;&gt;E -->
<g id="edge4" class="edge">
<title>B&#45;&gt;E</title>
<path fill="none" stroke="#003049" d="M132.57,-71.7C140.2,-63.22 149.52,-52.86 157.88,-43.58"/>
<polygon fill="#003049" stroke="#003049" points="164.61,-36.1 161.26,-46.55 161.26,-39.82 157.92,-43.54 157.92,-43.54 157.92,-43.54 161.26,-39.82 154.57,-40.53 164.61,-36.1 164.61,-36.1"/>
</g>
</g>
</svg>
