<?xml version="1.0" encoding="UTF-8" standalone="no"?>
<!DOCTYPE svg PUBLIC "-//W3C//DTD SVG 1.1//EN"
 "http://www.w3.org/Graphics/SVG/1.1/DTD/svg11.dtd">
<!-- Generated by graphviz version 2.43.0 (0)
 -->
<!-- Title: %3 Pages: 1 -->
<svg width="319pt" height="44pt"
 viewBox="0.00 0.00 319.00 44.00" xmlns="http://www.w3.org/2000/svg" xmlns:xlink="http://www.w3.org/1999/xlink">
<g id="graph0" class="graph" transform="scale(1 1) rotate(0) translate(4 40)">
<title>%3</title>
<polygon fill="white" stroke="transparent" points="-4,4 -4,-40 315,-40 315,4 -4,4"/>
<!-- A -->
<g id="node1" class="node">
<title>A</title>
<ellipse fill="#fcbf49" stroke="red" stroke-width="0" cx="54" cy="-18" rx="54" ry="18"/>
<text text-anchor="middle" x="54" y="-14.3" font-family="Helvetica,Arial,sans-serif" font-size="14.00" fill="#003049">Start</text>
</g>
<!-- B -->
<g id="node2" class="node">
<title>B</title>
<path fill="#fcbf49" stroke="blue" stroke-width="0" d="M299,-36C299,-36 215,-36 215,-36 209,-36 203,-30 203,-24 203,-24 203,-12 203,-12 203,-6 209,0 215,0 215,0 299,0 299,0 305,0 311,-6 311,-12 311,-12 311,-24 311,-24 311,-30 305,-36 299,-36"/>
<text text-anchor="middle" x="257" y="-14.3" font-family="Helvetica,Arial,sans-serif" font-size="14.00" fill="#003049">End</text>
</g>
<!-- A&#45;&gt;B -->
<g id="edge1" class="edge">
<title>A&#45;&gt;B</title>
<path fill="none" stroke="green" d="M108.07,-18C134.06,-18 165.54,-18 192.77,-18"/>
<polygon fill="green" stroke="green" points="202.98,-18 192.98,-22.5 197.98,-18 192.98,-18 192.98,-18 192.98,-18 197.98,-18 192.98,-13.5 202.98,-18 202.98,-18"/>
<text text-anchor="middle" x="155.5" y="-21.8" font-family="Helvetica,Arial,sans-serif" font-size="14.00">Transition</text>
</g>
</g>
</svg>
