<?xml version="1.0" encoding="UTF-8" standalone="no"?>
<!DOCTYPE svg PUBLIC "-//W3C//DTD SVG 1.1//EN"
 "http://www.w3.org/Graphics/SVG/1.1/DTD/svg11.dtd">
<!-- Generated by graphviz version 2.43.0 (0)
 -->
<!-- Title: %3 Pages: 1 -->
<svg width="133pt" height="332pt"
 viewBox="0.00 0.00 133.01 332.00" xmlns="http://www.w3.org/2000/svg" xmlns:xlink="http://www.w3.org/1999/xlink">
<g id="graph0" class="graph" transform="scale(1 1) rotate(0) translate(4 328)">
<title>%3</title>
<polygon fill="white" stroke="transparent" points="-4,4 -4,-328 129.01,-328 129.01,4 -4,4"/>
<!-- Start -->
<g id="node1" class="node">
<title>Start</title>
<ellipse fill="#fcbf49" stroke="lightgrey" stroke-width="0" cx="62.5" cy="-306" rx="54" ry="18"/>
<text text-anchor="middle" x="62.5" y="-302.3" font-family="Helvetica,Arial,sans-serif" font-size="14.00" fill="#003049">Start</text>
</g>
<!-- A -->
<g id="node2" class="node">
<title>A</title>
<path fill="#fcbf49" stroke="black" stroke-width="0" d="M104.5,-252C104.5,-252 20.5,-252 20.5,-252 14.5,-252 8.5,-246 8.5,-240 8.5,-240 8.5,-228 8.5,-228 8.5,-222 14.5,-216 20.5,-216 20.5,-216 104.5,-216 104.5,-216 110.5,-216 116.5,-222 116.5,-228 116.5,-228 116.5,-240 116.5,-240 116.5,-246 110.5,-252 104.5,-252"/>
<text text-anchor="middle" x="62.5" y="-230.3" font-family="Helvetica,Arial,sans-serif" font-size="14.00" fill="#003049">Action A</text>
</g>
<!-- Start&#45;&gt;A -->
<g id="edge1" class="edge">
<title>Start&#45;&gt;A</title>
<path fill="none" stroke="#003049" d="M62.5,-287.7C62.5,-279.98 62.5,-270.71 62.5,-262.11"/>
<polygon fill="#003049" stroke="#003049" points="62.5,-252.1 67,-262.1 62.5,-257.1 62.5,-262.1 62.5,-262.1 62.5,-262.1 62.5,-257.1 58,-262.1 62.5,-252.1 62.5,-252.1"/>
</g>
<!-- B -->
<g id="node3" class="node">
<title>B</title>
<path fill="#fcbf49" stroke="black" stroke-width="0" d="M104.5,-180C104.5,-180 20.5,-180 20.5,-180 14.5,-180 8.5,-174 8.5,-168 8.5,-168 8.5,-156 8.5,-156 8.5,-150 14.5,-144 20.5,-144 20.5,-144 104.5,-144 104.5,-144 110.5,-144 116.5,-150 116.5,-156 116.5,-156 116.5,-168 116.5,-168 116.5,-174 110.5,-180 104.5,-180"/>
<text text-anchor="middle" x="62.5" y="-158.3" font-family="Helvetica,Arial,sans-serif" font-size="14.00" fill="#003049">Action B</text>
</g>
<!-- A&#45;&gt;B -->
<g id="edge2" class="edge">
<title>A&#45;&gt;B</title>
<path fill="none" stroke="#003049" d="M62.5,-215.7C62.5,-207.98 62.5,-198.71 62.5,-190.11"/>
<polygon fill="#003049" stroke="#003049" points="62.5,-180.1 67,-190.1 62.5,-185.1 62.5,-190.1 62.5,-190.1 62.5,-190.1 62.5,-185.1 58,-190.1 62.5,-180.1 62.5,-180.1"/>
</g>
<!-- C -->
<g id="node4" class="node">
<title>C</title>
<path fill="#fcbf49" stroke="black" stroke-width="0" d="M50.97,-104.68C50.97,-104.68 11.53,-93.32 11.53,-93.32 5.76,-91.66 5.76,-88.34 11.53,-86.68 11.53,-86.68 50.97,-75.32 50.97,-75.32 56.74,-73.66 68.27,-73.66 74.03,-75.32 74.03,-75.32 113.48,-86.68 113.48,-86.68 119.24,-88.34 119.24,-91.66 113.48,-93.32 113.48,-93.32 74.03,-104.68 74.03,-104.68 68.27,-106.34 56.74,-106.34 50.97,-104.68"/>
<text text-anchor="middle" x="62.5" y="-86.3" font-family="Helvetica,Arial,sans-serif" font-size="14.00" fill="#003049">Action C</text>
</g>
<!-- B&#45;&gt;C -->
<g id="edge3" class="edge">
<title>B&#45;&gt;C</title>
<path fill="none" stroke="#003049" d="M62.5,-143.7C62.5,-135.98 62.5,-126.71 62.5,-118.11"/>
<polygon fill="#003049" stroke="#003049" points="62.5,-108.1 67,-118.1 62.5,-113.1 62.5,-118.1 62.5,-118.1 62.5,-118.1 62.5,-113.1 58,-118.1 62.5,-108.1 62.5,-108.1"/>
</g>
<!-- End -->
<g id="node5" class="node">
<title>End</title>
<ellipse fill="#fcbf49" stroke="lightgrey" stroke-width="0" cx="62.5" cy="-18" rx="54" ry="18"/>
<text text-anchor="middle" x="62.5" y="-14.3" font-family="Helvetica,Arial,sans-serif" font-size="14.00" fill="#003049">End</text>
</g>
<!-- C&#45;&gt;End -->
<g id="edge4" class="edge">
<title>C&#45;&gt;End</title>
<path fill="none" stroke="#003049" d="M62.5,-71.7C62.5,-63.98 62.5,-54.71 62.5,-46.11"/>
<polygon fill="#003049" stroke="#003049" points="62.5,-36.1 67,-46.1 62.5,-41.1 62.5,-46.1 62.5,-46.1 62.5,-46.1 62.5,-41.1 58,-46.1 62.5,-36.1 62.5,-36.1"/>
</g>
</g>
</svg>
