<?xml version="1.0" encoding="UTF-8" standalone="no"?>
<!DOCTYPE svg PUBLIC "-//W3C//DTD SVG 1.1//EN"
 "http://www.w3.org/Graphics/SVG/1.1/DTD/svg11.dtd">
<!-- Generated by graphviz version 2.43.0 (0)
 -->
<!-- Title: %3 Pages: 1 -->
<svg width="1329pt" height="57pt"
 viewBox="0.00 0.00 1329.00 57.00" xmlns="http://www.w3.org/2000/svg" xmlns:xlink="http://www.w3.org/1999/xlink">
<g id="graph0" class="graph" transform="scale(1 1) rotate(0) translate(4 53)">
<title>%3</title>
<polygon fill="white" stroke="transparent" points="-4,4 -4,-53 1325,-53 1325,4 -4,4"/>
<!-- I -->
<g id="node1" class="node">
<title>I</title>
<path fill="#fcbf49" stroke="black" stroke-width="0" d="M96,-38C96,-38 12,-38 12,-38 6,-38 0,-32 0,-26 0,-26 0,-12 0,-12 0,-6 6,0 12,0 12,0 96,0 96,0 102,0 108,-6 108,-12 108,-12 108,-26 108,-26 108,-32 102,-38 96,-38"/>
<text text-anchor="middle" x="54" y="-22.8" font-family="Helvetica,Arial,sans-serif" font-size="14.00" fill="#003049">Input Layer</text>
<text text-anchor="middle" x="54" y="-7.8" font-family="Helvetica,Arial,sans-serif" font-size="14.00" fill="#003049">(32x32x3)</text>
</g>
<!-- C1 -->
<g id="node2" class="node">
<title>C1</title>
<path fill="#fcbf49" stroke="black" stroke-width="0" d="M294,-38C294,-38 210,-38 210,-38 204,-38 198,-32 198,-26 198,-26 198,-12 198,-12 198,-6 204,0 210,0 210,0 294,0 294,0 300,0 306,-6 306,-12 306,-12 306,-26 306,-26 306,-32 300,-38 294,-38"/>
<text text-anchor="middle" x="252" y="-22.8" font-family="Helvetica,Arial,sans-serif" font-size="14.00" fill="#003049">Conv Layer 1</text>
<text text-anchor="middle" x="252" y="-7.8" font-family="Helvetica,Arial,sans-serif" font-size="14.00" fill="#003049">(28x28x32)</text>
</g>
<!-- I&#45;&gt;C1 -->
<g id="edge1" class="edge">
<title>I&#45;&gt;C1</title>
<path fill="none" stroke="#003049" d="M108.04,-19C132.66,-19 162.12,-19 187.87,-19"/>
<polygon fill="#003049" stroke="#003049" points="197.92,-19 187.92,-23.5 192.92,-19 187.92,-19 187.92,-19 187.92,-19 192.92,-19 187.92,-14.5 197.92,-19 197.92,-19"/>
<text text-anchor="middle" x="153" y="-37.8" font-family="Helvetica,Arial,sans-serif" font-size="14.00">Conv</text>
<text text-anchor="middle" x="153" y="-22.8" font-family="Helvetica,Arial,sans-serif" font-size="14.00">(5x5, 32)</text>
</g>
<!-- P1 -->
<g id="node3" class="node">
<title>P1</title>
<path fill="#fcbf49" stroke="black" stroke-width="0" d="M495,-38C495,-38 409,-38 409,-38 403,-38 397,-32 397,-26 397,-26 397,-12 397,-12 397,-6 403,0 409,0 409,0 495,0 495,0 501,0 507,-6 507,-12 507,-12 507,-26 507,-26 507,-32 501,-38 495,-38"/>
<text text-anchor="middle" x="452" y="-22.8" font-family="Helvetica,Arial,sans-serif" font-size="14.00" fill="#003049">Pooling Layer 1</text>
<text text-anchor="middle" x="452" y="-7.8" font-family="Helvetica,Arial,sans-serif" font-size="14.00" fill="#003049">(14x14x32)</text>
</g>
<!-- C1&#45;&gt;P1 -->
<g id="edge2" class="edge">
<title>C1&#45;&gt;P1</title>
<path fill="none" stroke="#003049" d="M306.06,-19C330.84,-19 360.54,-19 386.6,-19"/>
<polygon fill="#003049" stroke="#003049" points="396.76,-19 386.76,-23.5 391.76,-19 386.76,-19 386.76,-19 386.76,-19 391.76,-19 386.76,-14.5 396.76,-19 396.76,-19"/>
<text text-anchor="middle" x="351.5" y="-37.8" font-family="Helvetica,Arial,sans-serif" font-size="14.00">MaxPool</text>
<text text-anchor="middle" x="351.5" y="-22.8" font-family="Helvetica,Arial,sans-serif" font-size="14.00">(2x2)</text>
</g>
<!-- C2 -->
<g id="node4" class="node">
<title>C2</title>
<path fill="#fcbf49" stroke="black" stroke-width="0" d="M693,-38C693,-38 609,-38 609,-38 603,-38 597,-32 597,-26 597,-26 597,-12 597,-12 597,-6 603,0 609,0 609,0 693,0 693,0 699,0 705,-6 705,-12 705,-12 705,-26 705,-26 705,-32 699,-38 693,-38"/>
<text text-anchor="middle" x="651" y="-22.8" font-family="Helvetica,Arial,sans-serif" font-size="14.00" fill="#003049">Conv Layer 2</text>
<text text-anchor="middle" x="651" y="-7.8" font-family="Helvetica,Arial,sans-serif" font-size="14.00" fill="#003049">(10x10x64)</text>
</g>
<!-- P1&#45;&gt;C2 -->
<g id="edge3" class="edge">
<title>P1&#45;&gt;C2</title>
<path fill="none" stroke="#003049" d="M507.09,-19C531.73,-19 561.05,-19 586.71,-19"/>
<polygon fill="#003049" stroke="#003049" points="596.71,-19 586.71,-23.5 591.71,-19 586.71,-19 586.71,-19 586.71,-19 591.71,-19 586.71,-14.5 596.71,-19 596.71,-19"/>
<text text-anchor="middle" x="552" y="-37.8" font-family="Helvetica,Arial,sans-serif" font-size="14.00">Conv</text>
<text text-anchor="middle" x="552" y="-22.8" font-family="Helvetica,Arial,sans-serif" font-size="14.00">(5x5, 64)</text>
</g>
<!-- P2 -->
<g id="node5" class="node">
<title>P2</title>
<path fill="#fcbf49" stroke="black" stroke-width="0" d="M894,-38C894,-38 808,-38 808,-38 802,-38 796,-32 796,-26 796,-26 796,-12 796,-12 796,-6 802,0 808,0 808,0 894,0 894,0 900,0 906,-6 906,-12 906,-12 906,-26 906,-26 906,-32 900,-38 894,-38"/>
<text text-anchor="middle" x="851" y="-22.8" font-family="Helvetica,Arial,sans-serif" font-size="14.00" fill="#003049">Pooling Layer 2</text>
<text text-anchor="middle" x="851" y="-7.8" font-family="Helvetica,Arial,sans-serif" font-size="14.00" fill="#003049">(5x5x64)</text>
</g>
<!-- C2&#45;&gt;P2 -->
<g id="edge4" class="edge">
<title>C2&#45;&gt;P2</title>
<path fill="none" stroke="#003049" d="M705.06,-19C729.84,-19 759.54,-19 785.6,-19"/>
<polygon fill="#003049" stroke="#003049" points="795.76,-19 785.76,-23.5 790.76,-19 785.76,-19 785.76,-19 785.76,-19 790.76,-19 785.76,-14.5 795.76,-19 795.76,-19"/>
<text text-anchor="middle" x="750.5" y="-37.8" font-family="Helvetica,Arial,sans-serif" font-size="14.00">MaxPool</text>
<text text-anchor="middle" x="750.5" y="-22.8" font-family="Helvetica,Arial,sans-serif" font-size="14.00">(2x2)</text>
</g>
<!-- F -->
<g id="node6" class="node">
<title>F</title>
<path fill="#fcbf49" stroke="black" stroke-width="0" d="M1125,-38C1125,-38 997,-38 997,-38 991,-38 985,-32 985,-26 985,-26 985,-12 985,-12 985,-6 991,0 997,0 997,0 1125,0 1125,0 1131,0 1137,-6 1137,-12 1137,-12 1137,-26 1137,-26 1137,-32 1131,-38 1125,-38"/>
<text text-anchor="middle" x="1061" y="-22.8" font-family="Helvetica,Arial,sans-serif" font-size="14.00" fill="#003049">Fully Connected Layer</text>
<text text-anchor="middle" x="1061" y="-7.8" font-family="Helvetica,Arial,sans-serif" font-size="14.00" fill="#003049">(1024)</text>
</g>
<!-- P2&#45;&gt;F -->
<g id="edge5" class="edge">
<title>P2&#45;&gt;F</title>
<path fill="none" stroke="#003049" d="M906.11,-19C926.97,-19 951.35,-19 974.47,-19"/>
<polygon fill="#003049" stroke="#003049" points="984.63,-19 974.64,-23.5 979.63,-19 974.63,-19 974.63,-19 974.63,-19 979.63,-19 974.63,-14.5 984.63,-19 984.63,-19"/>
<text text-anchor="middle" x="945.5" y="-22.8" font-family="Helvetica,Arial,sans-serif" font-size="14.00">Flatten</text>
</g>
<!-- O -->
<g id="node7" class="node">
<title>O</title>
<path fill="#fcbf49" stroke="black" stroke-width="0" d="M1309,-38C1309,-38 1225,-38 1225,-38 1219,-38 1213,-32 1213,-26 1213,-26 1213,-12 1213,-12 1213,-6 1219,0 1225,0 1225,0 1309,0 1309,0 1315,0 1321,-6 1321,-12 1321,-12 1321,-26 1321,-26 1321,-32 1315,-38 1309,-38"/>
<text text-anchor="middle" x="1267" y="-22.8" font-family="Helvetica,Arial,sans-serif" font-size="14.00" fill="#003049">Output Layer</text>
<text text-anchor="middle" x="1267" y="-7.8" font-family="Helvetica,Arial,sans-serif" font-size="14.00" fill="#003049">(10)</text>
</g>
<!-- F&#45;&gt;O -->
<g id="edge6" class="edge">
<title>F&#45;&gt;O</title>
<path fill="none" stroke="#003049" d="M1137.09,-19C1158.57,-19 1181.76,-19 1202.48,-19"/>
<polygon fill="#003049" stroke="#003049" points="1212.74,-19 1202.74,-23.5 1207.74,-19 1202.74,-19 1202.74,-19 1202.74,-19 1207.74,-19 1202.74,-14.5 1212.74,-19 1212.74,-19"/>
<text text-anchor="middle" x="1175" y="-22.8" font-family="Helvetica,Arial,sans-serif" font-size="14.00">Dense</text>
</g>
</g>
</svg>
