<?xml version="1.0" encoding="UTF-8" standalone="no"?>
<!DOCTYPE svg PUBLIC "-//W3C//DTD SVG 1.1//EN"
 "http://www.w3.org/Graphics/SVG/1.1/DTD/svg11.dtd">
<!-- Generated by graphviz version 2.43.0 (0)
 -->
<!-- Title: %3 Pages: 1 -->
<svg width="436pt" height="182pt"
 viewBox="0.00 0.00 436.00 182.00" xmlns="http://www.w3.org/2000/svg" xmlns:xlink="http://www.w3.org/1999/xlink">
<g id="graph0" class="graph" transform="scale(1 1) rotate(0) translate(4 178)">
<title>%3</title>
<polygon fill="white" stroke="transparent" points="-4,4 -4,-178 432,-178 432,4 -4,4"/>
<g id="clust1" class="cluster">
<title>cluster_0</title>
<path fill="#d62828" stroke="black" stroke-width="0" d="M20,-91C20,-91 264,-91 264,-91 270,-91 276,-97 276,-103 276,-103 276,-154 276,-154 276,-160 270,-166 264,-166 264,-166 20,-166 20,-166 14,-166 8,-160 8,-154 8,-154 8,-103 8,-103 8,-97 14,-91 20,-91"/>
<text text-anchor="middle" x="142" y="-150.8" font-family="Helvetica,Arial,sans-serif" font-size="14.00" fill="#003049">Subgraph 1</text>
</g>
<g id="clust2" class="cluster">
<title>cluster_1</title>
<path fill="#d62828" stroke="black" stroke-width="0" d="M164,-8C164,-8 408,-8 408,-8 414,-8 420,-14 420,-20 420,-20 420,-71 420,-71 420,-77 414,-83 408,-83 408,-83 164,-83 164,-83 158,-83 152,-77 152,-71 152,-71 152,-20 152,-20 152,-14 158,-8 164,-8"/>
<text text-anchor="middle" x="286" y="-67.8" font-family="Helvetica,Arial,sans-serif" font-size="14.00" fill="#003049">Subgraph 2</text>
</g>
<!-- A -->
<g id="node1" class="node">
<title>A</title>
<path fill="#fcbf49" stroke="black" stroke-width="0" d="M112,-135C112,-135 28,-135 28,-135 22,-135 16,-129 16,-123 16,-123 16,-111 16,-111 16,-105 22,-99 28,-99 28,-99 112,-99 112,-99 118,-99 124,-105 124,-111 124,-111 124,-123 124,-123 124,-129 118,-135 112,-135"/>
<text text-anchor="middle" x="70" y="-113.3" font-family="Helvetica,Arial,sans-serif" font-size="14.00" fill="#003049">Node A</text>
</g>
<!-- B -->
<g id="node2" class="node">
<title>B</title>
<path fill="#fcbf49" stroke="black" stroke-width="0" d="M256,-135C256,-135 172,-135 172,-135 166,-135 160,-129 160,-123 160,-123 160,-111 160,-111 160,-105 166,-99 172,-99 172,-99 256,-99 256,-99 262,-99 268,-105 268,-111 268,-111 268,-123 268,-123 268,-129 262,-135 256,-135"/>
<text text-anchor="middle" x="214" y="-113.3" font-family="Helvetica,Arial,sans-serif" font-size="14.00" fill="#003049">Node B</text>
</g>
<!-- A&#45;&gt;B -->
<g id="edge1" class="edge">
<title>A&#45;&gt;B</title>
<path fill="none" stroke="#003049" d="M124.28,-117C132.56,-117 141.18,-117 149.66,-117"/>
<polygon fill="#003049" stroke="#003049" points="159.89,-117 149.89,-121.5 154.89,-117 149.89,-117 149.89,-117 149.89,-117 154.89,-117 149.89,-112.5 159.89,-117 159.89,-117"/>
</g>
<!-- C -->
<g id="node3" class="node">
<title>C</title>
<path fill="#fcbf49" stroke="black" stroke-width="0" d="M256,-52C256,-52 172,-52 172,-52 166,-52 160,-46 160,-40 160,-40 160,-28 160,-28 160,-22 166,-16 172,-16 172,-16 256,-16 256,-16 262,-16 268,-22 268,-28 268,-28 268,-40 268,-40 268,-46 262,-52 256,-52"/>
<text text-anchor="middle" x="214" y="-30.3" font-family="Helvetica,Arial,sans-serif" font-size="14.00" fill="#003049">Node C</text>
</g>
<!-- A&#45;&gt;C -->
<g id="edge3" class="edge">
<title>A&#45;&gt;C</title>
<path fill="none" stroke="#003049" d="M101.81,-98.99C122.69,-86.78 150.49,-70.54 173.07,-57.34"/>
<polygon fill="#003049" stroke="#003049" points="181.76,-52.26 175.4,-61.19 177.44,-54.78 173.12,-57.31 173.12,-57.31 173.12,-57.31 177.44,-54.78 170.85,-53.42 181.76,-52.26 181.76,-52.26"/>
</g>
<!-- D -->
<g id="node4" class="node">
<title>D</title>
<path fill="#fcbf49" stroke="black" stroke-width="0" d="M400,-52C400,-52 316,-52 316,-52 310,-52 304,-46 304,-40 304,-40 304,-28 304,-28 304,-22 310,-16 316,-16 316,-16 400,-16 400,-16 406,-16 412,-22 412,-28 412,-28 412,-40 412,-40 412,-46 406,-52 400,-52"/>
<text text-anchor="middle" x="358" y="-30.3" font-family="Helvetica,Arial,sans-serif" font-size="14.00" fill="#003049">Node D</text>
</g>
<!-- C&#45;&gt;D -->
<g id="edge2" class="edge">
<title>C&#45;&gt;D</title>
<path fill="none" stroke="#003049" d="M268.28,-34C276.56,-34 285.18,-34 293.66,-34"/>
<polygon fill="#003049" stroke="#003049" points="303.89,-34 293.89,-38.5 298.89,-34 293.89,-34 293.89,-34 293.89,-34 298.89,-34 293.89,-29.5 303.89,-34 303.89,-34"/>
</g>
</g>
</svg>
